<svg xmlns="http://www.w3.org/2000/svg" xmlns:xlink="http://www.w3.org/1999/xlink" viewBox="0 0 280.22 276.19"><defs><style>.cls-1{isolation:isolate;}.cls-2{fill:url(#linear-gradient);}.cls-3,.cls-4,.cls-5,.cls-6{fill:#fff;}.cls-3{opacity:0.6;}.cls-3,.cls-6{mix-blend-mode:overlay;}.cls-5{opacity:0.5;}.cls-6{opacity:0.3;}</style><linearGradient id="linear-gradient" x1="260.91" y1="58.85" x2="56.87" y2="197.89" gradientUnits="userSpaceOnUse"><stop offset="0" stop-color="#01b2ff"/><stop offset="1" stop-color="#e35be6"/></linearGradient></defs><g class="cls-1"><g id="Layer_2" data-name="Layer 2"><g id="Layer_1-2" data-name="Layer 1"><rect class="cls-2" x="41.28" y="49.65" width="238.94" height="154.91" rx="9.26"/><rect class="cls-3" x="221.16" y="64.2" width="42.24" height="25.19" rx="2.98"/><rect class="cls-3" x="41.28" y="147.32" width="238.94" height="26.09"/><path class="cls-4" d="M263.4,112.13H59.86a3.24,3.24,0,0,1,0-6.48H263.4a3.24,3.24,0,1,1,0,6.48Z"/><path class="cls-4" d="M142.73,135.54H59.86a3.24,3.24,0,0,1,0-6.48h82.87a3.24,3.24,0,0,1,0,6.48Z"/><path class="cls-4" d="M262.6,190H221.16a3.24,3.24,0,0,1,0-6.48H262.6a3.24,3.24,0,0,1,0,6.48Z"/><path class="cls-5" d="M184.78,1.62a13.6,13.6,0,0,1,13.58,13.59V261a13.59,13.59,0,0,1-13.58,13.59H15.21A13.6,13.6,0,0,1,1.62,261V15.21A13.6,13.6,0,0,1,15.21,1.62H184.78m0-1.62H15.21A15.21,15.21,0,0,0,0,15.21V261a15.21,15.21,0,0,0,15.21,15.21H184.78A15.21,15.21,0,0,0,200,261V15.21A15.21,15.21,0,0,0,184.78,0Z"/><circle class="cls-3" cx="67.14" cy="217.66" r="41.37"/><circle class="cls-3" cx="67.14" cy="217.66" r="29.26" transform="translate(-78.18 42.26) rotate(-22.5)"/><circle class="cls-3" cx="44.39" cy="42.62" r="15.98" transform="translate(-7.29 76.03) rotate(-76.72)"/><circle class="cls-3" cx="101.97" cy="42.62" r="15.98" transform="translate(37.06 132.07) rotate(-76.72)"/><circle class="cls-3" cx="159.56" cy="42.62" r="15.98" transform="translate(81.42 188.12) rotate(-76.72)"/><path class="cls-6" d="M184.78,1.62a13.6,13.6,0,0,1,13.58,13.59V261a13.59,13.59,0,0,1-13.58,13.59H15.21A13.6,13.6,0,0,1,1.62,261V15.21A13.6,13.6,0,0,1,15.21,1.62H184.78"/></g></g></g></svg>