<svg xmlns="http://www.w3.org/2000/svg" viewBox="0 0 118.25 89.74"><defs><style>.cls-1{fill:#fff;fill-rule:evenodd;opacity:0.43;}</style></defs><g id="Layer_2" data-name="Layer 2"><g id="Layer_1-2" data-name="Layer 1"><path class="cls-1" d="M.32,69.32c-2-21.26,5.9-43.7,17.53-61.18a3.09,3.09,0,0,1,1.18-1A96.68,96.68,0,0,1,41.81,0a1,1,0,0,1,1.27.62c.73,1.52,1.58,3,2.23,4.54.37.9.83,1,1.73,1a144.93,144.93,0,0,1,24.65,0c.81,0,1.22-.09,1.56-.88.65-1.55,1.47-3,2.19-4.56A1.06,1.06,0,0,1,76.78,0,97.29,97.29,0,0,1,99.45,7.1a3,3,0,0,1,1.27,1.07c2.08,3.39,4.25,6.75,6.13,10.27a100.5,100.5,0,0,1,11.26,43.17,64.53,64.53,0,0,1-.32,12.27,2.41,2.41,0,0,1-.8,1.48,96.42,96.42,0,0,1-26.45,13.7c-2.68.9-2.74.92-4.28-1.47-1.65-2.57-3.19-5.21-4.86-8,1.87-.82,3.53-1.49,5.14-2.27s3.2-1.67,4.85-2.53c-1.73-2-2-2.12-4.1-1.25-18.71,8-37.42,7.84-56.12,0-1.92-.81-2.56-.64-4.05,1.37l10,4.85c-2,3.16-4,6.22-5.87,9.31-.43.7-.87.76-1.61.52A97.28,97.28,0,0,1,1.58,75.35a2.39,2.39,0,0,1-.8-1.48C.55,72.37.46,70.84.32,69.32Zm89.2-20.25a12.88,12.88,0,0,0-.74-4.16c-2.59-7.42-11.21-9.81-16.68-4.63A12.85,12.85,0,0,0,72,58.38a9.74,9.74,0,0,0,14-.19A12.5,12.5,0,0,0,89.52,49.07Zm-39,.22a37.53,37.53,0,0,0-.93-4.36c-2.49-7.29-10.87-9.78-16.4-4.9A12.82,12.82,0,0,0,33,58.52a9.69,9.69,0,0,0,13.84-.33A13.39,13.39,0,0,0,50.51,49.29Z"/></g></g></svg>