<svg xmlns="http://www.w3.org/2000/svg" xmlns:xlink="http://www.w3.org/1999/xlink" viewBox="0 0 560.09 531.23"><defs><style>.cls-1{fill:url(#linear-gradient);}.cls-10,.cls-11,.cls-12,.cls-13,.cls-14,.cls-2,.cls-4,.cls-6,.cls-7,.cls-8,.cls-9{opacity:0.7;}.cls-2{fill:url(#linear-gradient-2);}.cls-3,.cls-5{fill:none;stroke-linecap:round;stroke-linejoin:round;}.cls-18,.cls-3,.cls-5{stroke:#00e5ff;}.cls-3{stroke-width:2.21px;}.cls-4{fill:url(#linear-gradient-3);}.cls-18,.cls-5{stroke-width:2px;}.cls-6{fill:url(#linear-gradient-4);}.cls-7{fill:url(#linear-gradient-5);}.cls-8{fill:url(#linear-gradient-6);}.cls-9{fill:url(#linear-gradient-7);}.cls-10{fill:url(#linear-gradient-8);}.cls-11{fill:url(#linear-gradient-9);}.cls-12{fill:url(#linear-gradient-10);}.cls-13{fill:url(#linear-gradient-11);}.cls-14{fill:url(#linear-gradient-12);}.cls-15,.cls-16,.cls-18{fill:#fff;}.cls-16{font-size:18.31px;font-family:SpaceGrotesk-Regular, Space Grotesk;}.cls-17{letter-spacing:-0.01em;}.cls-18{stroke-miterlimit:10;}.cls-19{fill:#00e5ff;}</style><linearGradient id="linear-gradient" x1="372.24" y1="115.73" x2="446.62" y2="115.73" gradientUnits="userSpaceOnUse"><stop offset="0" stop-color="#00a6dd"/><stop offset="0.16" stop-color="#00a6dd" stop-opacity="0.86"/><stop offset="0.43" stop-color="#00a6dd" stop-opacity="0.66"/><stop offset="0.66" stop-color="#00a6dd" stop-opacity="0.52"/><stop offset="0.86" stop-color="#00a6dd" stop-opacity="0.43"/><stop offset="1" stop-color="#00a6dd" stop-opacity="0.4"/></linearGradient><linearGradient id="linear-gradient-2" x1="221.41" y1="115.73" x2="295.79" y2="115.73" xlink:href="#linear-gradient"/><linearGradient id="linear-gradient-3" x1="2681.07" y1="-1168.38" x2="2681.07" y2="-1085.9" gradientTransform="translate(3015.09 -638.26) rotate(180)" xlink:href="#linear-gradient"/><linearGradient id="linear-gradient-4" x1="2681.07" y1="-1021.62" x2="2681.07" y2="-939.14" gradientTransform="translate(3015.09 -638.26) rotate(180)" xlink:href="#linear-gradient"/><linearGradient id="linear-gradient-5" x1="2605.66" y1="-1095" x2="2605.66" y2="-1012.52" gradientTransform="translate(3015.09 -638.26) rotate(180)" xlink:href="#linear-gradient"/><linearGradient id="linear-gradient-6" x1="2756.48" y1="-1095" x2="2756.48" y2="-1012.52" gradientTransform="translate(3015.09 -638.26) rotate(180)" xlink:href="#linear-gradient"/><linearGradient id="linear-gradient-7" x1="2976.79" y1="-970.84" x2="2976.79" y2="-888.36" gradientTransform="translate(3015.09 -638.26) rotate(180)" xlink:href="#linear-gradient"/><linearGradient id="linear-gradient-8" x1="2921.99" y1="-879.22" x2="2921.99" y2="-796.74" gradientTransform="translate(3015.09 -638.26) rotate(180)" xlink:href="#linear-gradient"/><linearGradient id="linear-gradient-9" x1="2866.64" y1="-970.84" x2="2866.64" y2="-888.36" gradientTransform="translate(3015.09 -638.26) rotate(180)" xlink:href="#linear-gradient"/><linearGradient id="linear-gradient-10" x1="2921.99" y1="-939.85" x2="2921.99" y2="-857.37" gradientTransform="translate(3015.09 -638.26) rotate(180)" xlink:href="#linear-gradient"/><linearGradient id="linear-gradient-11" x1="2681.07" y1="-868.6" x2="2681.07" y2="-786.12" gradientTransform="translate(3015.09 -638.26) rotate(180)" xlink:href="#linear-gradient"/><linearGradient id="linear-gradient-12" x1="2681.07" y1="-721.84" x2="2681.07" y2="-639.36" gradientTransform="translate(3015.09 -638.26) rotate(180)" xlink:href="#linear-gradient"/></defs><g id="Layer_2" data-name="Layer 2"><g id="Layer_1-2" data-name="Layer 1"><path class="cls-1" d="M372.24,100.6v30.25a11,11,0,0,0,5.49,9.52l26.21,15.13a11,11,0,0,0,11,0l26.21-15.13a11,11,0,0,0,5.49-9.52V100.6a11,11,0,0,0-5.49-9.52L414.92,76a10.94,10.94,0,0,0-11,0L377.73,91.08A11,11,0,0,0,372.24,100.6Z"/><path class="cls-2" d="M221.41,100.6v30.25a11,11,0,0,0,5.5,9.52l26.2,15.13a11,11,0,0,0,11,0l26.2-15.13a11,11,0,0,0,5.49-9.52V100.6a11,11,0,0,0-5.49-9.52L264.1,76a11,11,0,0,0-11,0l-26.2,15.12A11,11,0,0,0,221.41,100.6Z"/><path class="cls-3" d="M372.24,100.6v30.25a11,11,0,0,0,5.49,9.52l26.21,15.13a11,11,0,0,0,11,0l26.21-15.13a11,11,0,0,0,5.49-9.52V100.6a11,11,0,0,0-5.49-9.52L414.92,76a10.94,10.94,0,0,0-11,0L377.73,91.08A11,11,0,0,0,372.24,100.6Z"/><line class="cls-3" x1="409.43" y1="115.73" x2="409.43" y2="156.97"/><line class="cls-3" x1="445.76" y1="96.34" x2="409.43" y2="115.73"/><line class="cls-3" x1="373.65" y1="95.22" x2="409.43" y2="115.73"/><path class="cls-3" d="M221.41,100.6v30.25a11,11,0,0,0,5.5,9.52l26.2,15.13a11,11,0,0,0,11,0l26.2-15.13a11,11,0,0,0,5.49-9.52V100.6a11,11,0,0,0-5.49-9.52L264.1,76a11,11,0,0,0-11,0l-26.2,15.12A11,11,0,0,0,221.41,100.6Z"/><line class="cls-3" x1="258.6" y1="115.73" x2="258.6" y2="156.97"/><line class="cls-3" x1="294.93" y1="96.34" x2="258.6" y2="115.73"/><line class="cls-3" x1="222.82" y1="95.22" x2="258.6" y2="115.73"/><path class="cls-4" d="M296.83,473.75V504a11,11,0,0,0,5.49,9.51l26.2,15.13a11,11,0,0,0,11,0l26.2-15.13a11,11,0,0,0,5.5-9.51V473.75a11,11,0,0,0-5.5-9.51l-26.2-15.13a11,11,0,0,0-11,0l-26.2,15.13A11,11,0,0,0,296.83,473.75Z"/><path class="cls-3" d="M296.83,473.75V504a11,11,0,0,0,5.49,9.51l26.2,15.13a11,11,0,0,0,11,0l26.2-15.13a11,11,0,0,0,5.5-9.51V473.75a11,11,0,0,0-5.5-9.51l-26.2-15.13a11,11,0,0,0-11,0l-26.2,15.13A11,11,0,0,0,296.83,473.75Z"/><line class="cls-5" x1="334.02" y1="488.88" x2="334.02" y2="530.12"/><line class="cls-5" x1="370.34" y1="469.49" x2="334.02" y2="488.88"/><line class="cls-5" x1="298.24" y1="468.38" x2="334.02" y2="488.88"/><path class="cls-6" d="M296.83,327v30.25a11,11,0,0,0,5.49,9.52l26.2,15.12a10.94,10.94,0,0,0,11,0l26.2-15.12a11,11,0,0,0,5.5-9.52V327a11,11,0,0,0-5.5-9.52l-26.2-15.13a11,11,0,0,0-11,0l-26.2,15.13A11,11,0,0,0,296.83,327Z"/><path class="cls-3" d="M296.83,327v30.25a11,11,0,0,0,5.49,9.52l26.2,15.12a10.94,10.94,0,0,0,11,0l26.2-15.12a11,11,0,0,0,5.5-9.52V327a11,11,0,0,0-5.5-9.52l-26.2-15.13a11,11,0,0,0-11,0l-26.2,15.13A11,11,0,0,0,296.83,327Z"/><line class="cls-5" x1="334.02" y1="342.12" x2="334.02" y2="383.37"/><line class="cls-5" x1="370.34" y1="322.73" x2="334.02" y2="342.12"/><line class="cls-5" x1="298.24" y1="321.62" x2="334.02" y2="342.12"/><path class="cls-7" d="M372.24,400.37v30.26a11,11,0,0,0,5.49,9.51l26.21,15.13a11,11,0,0,0,11,0l26.21-15.13a11,11,0,0,0,5.49-9.51V400.37a11,11,0,0,0-5.49-9.51l-26.21-15.13a11,11,0,0,0-11,0l-26.21,15.13A11,11,0,0,0,372.24,400.37Z"/><path class="cls-3" d="M372.24,400.37v30.26a11,11,0,0,0,5.49,9.51l26.21,15.13a11,11,0,0,0,11,0l26.21-15.13a11,11,0,0,0,5.49-9.51V400.37a11,11,0,0,0-5.49-9.51l-26.21-15.13a11,11,0,0,0-11,0l-26.21,15.13A11,11,0,0,0,372.24,400.37Z"/><line class="cls-5" x1="409.43" y1="415.5" x2="409.43" y2="456.74"/><line class="cls-5" x1="445.76" y1="396.11" x2="409.43" y2="415.5"/><line class="cls-5" x1="373.65" y1="395" x2="409.43" y2="415.5"/><path class="cls-8" d="M221.41,400.37v30.26a11,11,0,0,0,5.5,9.51l26.2,15.13a11,11,0,0,0,11,0l26.2-15.13a11,11,0,0,0,5.49-9.51V400.37a11,11,0,0,0-5.49-9.51l-26.2-15.13a11,11,0,0,0-11,0l-26.2,15.13A11,11,0,0,0,221.41,400.37Z"/><path class="cls-3" d="M221.41,400.37v30.26a11,11,0,0,0,5.5,9.51l26.2,15.13a11,11,0,0,0,11,0l26.2-15.13a11,11,0,0,0,5.49-9.51V400.37a11,11,0,0,0-5.49-9.51l-26.2-15.13a11,11,0,0,0-11,0l-26.2,15.13A11,11,0,0,0,221.41,400.37Z"/><line class="cls-5" x1="258.6" y1="415.5" x2="258.6" y2="456.74"/><line class="cls-5" x1="294.93" y1="396.11" x2="258.6" y2="415.5"/><line class="cls-5" x1="222.82" y1="395" x2="258.6" y2="415.5"/><path class="cls-9" d="M1.11,276.22v30.25A11,11,0,0,0,6.6,316l26.2,15.12a10.94,10.94,0,0,0,11,0L70,316a11,11,0,0,0,5.49-9.52V276.22A11,11,0,0,0,70,266.7l-26.2-15.13a11,11,0,0,0-11,0L6.6,266.7A11,11,0,0,0,1.11,276.22Z"/><path class="cls-3" d="M1.11,276.22v30.25A11,11,0,0,0,6.6,316l26.2,15.12a10.94,10.94,0,0,0,11,0L70,316a11,11,0,0,0,5.49-9.52V276.22A11,11,0,0,0,70,266.7l-26.2-15.13a11,11,0,0,0-11,0L6.6,266.7A11,11,0,0,0,1.11,276.22Z"/><line class="cls-5" x1="38.29" y1="291.34" x2="38.29" y2="332.59"/><line class="cls-5" x1="74.62" y1="271.96" x2="38.29" y2="291.34"/><line class="cls-5" x1="2.52" y1="270.84" x2="38.29" y2="291.34"/><path class="cls-10" d="M55.91,184.59v30.26a11,11,0,0,0,5.49,9.51l26.2,15.13a11,11,0,0,0,11,0l26.2-15.13a11,11,0,0,0,5.5-9.51V184.59a11,11,0,0,0-5.5-9.51L98.59,160a11,11,0,0,0-11,0L61.4,175.08A11,11,0,0,0,55.91,184.59Z"/><path class="cls-3" d="M55.91,184.59v30.26a11,11,0,0,0,5.49,9.51l26.2,15.13a11,11,0,0,0,11,0l26.2-15.13a11,11,0,0,0,5.5-9.51V184.59a11,11,0,0,0-5.5-9.51L98.59,160a11,11,0,0,0-11,0L61.4,175.08A11,11,0,0,0,55.91,184.59Z"/><line class="cls-5" x1="93.1" y1="199.72" x2="93.1" y2="240.96"/><line class="cls-5" x1="129.42" y1="180.33" x2="93.1" y2="199.72"/><line class="cls-5" x1="57.32" y1="179.22" x2="93.1" y2="199.72"/><path class="cls-11" d="M111.26,276.22v30.25a11,11,0,0,0,5.49,9.52L143,331.11a10.92,10.92,0,0,0,11,0L180.14,316a11,11,0,0,0,5.5-9.52V276.22a11,11,0,0,0-5.5-9.52l-26.2-15.13a11,11,0,0,0-11,0L116.75,266.7A11,11,0,0,0,111.26,276.22Z"/><path class="cls-3" d="M111.26,276.22v30.25a11,11,0,0,0,5.49,9.52L143,331.11a10.92,10.92,0,0,0,11,0L180.14,316a11,11,0,0,0,5.5-9.52V276.22a11,11,0,0,0-5.5-9.52l-26.2-15.13a11,11,0,0,0-11,0L116.75,266.7A11,11,0,0,0,111.26,276.22Z"/><line class="cls-5" x1="148.45" y1="291.34" x2="148.45" y2="332.59"/><line class="cls-5" x1="184.77" y1="271.96" x2="148.45" y2="291.34"/><line class="cls-5" x1="112.67" y1="270.84" x2="148.45" y2="291.34"/><path class="cls-12" d="M55.91,245.23v30.25A11,11,0,0,0,61.4,285l26.2,15.12a10.94,10.94,0,0,0,11,0L124.79,285a11,11,0,0,0,5.5-9.52V245.23a11,11,0,0,0-5.5-9.52l-26.2-15.13a11,11,0,0,0-11,0L61.4,235.71A11,11,0,0,0,55.91,245.23Z"/><path class="cls-3" d="M55.91,245.23v30.25A11,11,0,0,0,61.4,285l26.2,15.12a10.94,10.94,0,0,0,11,0L124.79,285a11,11,0,0,0,5.5-9.52V245.23a11,11,0,0,0-5.5-9.52l-26.2-15.13a11,11,0,0,0-11,0L61.4,235.71A11,11,0,0,0,55.91,245.23Z"/><line class="cls-5" x1="93.1" y1="260.35" x2="93.1" y2="301.6"/><line class="cls-5" x1="129.42" y1="240.96" x2="93.1" y2="260.35"/><line class="cls-5" x1="57.32" y1="239.85" x2="93.1" y2="260.35"/><path class="cls-13" d="M296.83,174v30.25a11,11,0,0,0,5.49,9.52l26.2,15.13a11,11,0,0,0,11,0l26.2-15.13a11,11,0,0,0,5.5-9.52V174a11,11,0,0,0-5.5-9.52l-26.2-15.12a11,11,0,0,0-11,0l-26.2,15.12A11,11,0,0,0,296.83,174Z"/><path class="cls-3" d="M296.83,174v30.25a11,11,0,0,0,5.49,9.52l26.2,15.13a11,11,0,0,0,11,0l26.2-15.13a11,11,0,0,0,5.5-9.52V174a11,11,0,0,0-5.5-9.52l-26.2-15.12a11,11,0,0,0-11,0l-26.2,15.12A11,11,0,0,0,296.83,174Z"/><line class="cls-5" x1="334.02" y1="189.11" x2="334.02" y2="230.35"/><line class="cls-5" x1="370.34" y1="169.72" x2="334.02" y2="189.11"/><line class="cls-5" x1="298.24" y1="168.6" x2="334.02" y2="189.11"/><path class="cls-14" d="M296.83,27.22V57.48A11,11,0,0,0,302.32,67l26.2,15.13a11,11,0,0,0,11,0L365.71,67a11,11,0,0,0,5.5-9.51V27.22a11,11,0,0,0-5.5-9.51L339.51,2.58a11,11,0,0,0-11,0l-26.2,15.13A11,11,0,0,0,296.83,27.22Z"/><path class="cls-3" d="M296.83,27.22V57.48A11,11,0,0,0,302.32,67l26.2,15.13a11,11,0,0,0,11,0L365.71,67a11,11,0,0,0,5.5-9.51V27.22a11,11,0,0,0-5.5-9.51L339.51,2.58a11,11,0,0,0-11,0l-26.2,15.13A11,11,0,0,0,296.83,27.22Z"/><line class="cls-5" x1="334.02" y1="42.35" x2="334.02" y2="83.59"/><line class="cls-5" x1="370.34" y1="22.96" x2="334.02" y2="42.35"/><line class="cls-5" x1="298.24" y1="21.84" x2="334.02" y2="42.35"/><path class="cls-15" d="M35,100.61h1.54v12.81H35Z"/><path class="cls-15" d="M39.52,104.47h1.41V106h.26a3,3,0,0,1,3.07-1.68A3.41,3.41,0,0,1,47.81,108v5.42H46.37v-5.31a2.24,2.24,0,0,0-2.47-2.54c-1.73,0-2.93,1.13-2.93,3.35v4.5H39.52Z"/><path class="cls-15" d="M52.19,111.85v-6.12H49.5v-1.26h2.69v-3.19h1.45v3.19h2.93v1.26H53.64v5.88c0,.37.14.55.53.55h2v1.26H53.78A1.45,1.45,0,0,1,52.19,111.85Z"/><path class="cls-15" d="M58.14,109.07v-.22a4.33,4.33,0,0,1,4.45-4.64,4.12,4.12,0,0,1,4.3,4.45v.66H59.61a3,3,0,0,0,3.11,3.08,2.74,2.74,0,0,0,2.73-1.8l1.24.61a4.11,4.11,0,0,1-4,2.47A4.32,4.32,0,0,1,58.14,109.07Zm7.29-.94a2.65,2.65,0,0,0-2.84-2.63,2.8,2.8,0,0,0-3,2.63Z"/><path class="cls-15" d="M69.42,104.47h1.41v1.1h.26a1.88,1.88,0,0,1,2-1.14h1.06v1.32H73A2,2,0,0,0,70.87,108v5.45H69.42Z"/><path class="cls-15" d="M75.56,109.07v-.24a4.58,4.58,0,1,1,9.15,0v.24a4.58,4.58,0,1,1-9.15,0Zm7.7,0v-.17a3.14,3.14,0,1,0-6.26,0V109a3.14,3.14,0,1,0,6.26,0Z"/><path class="cls-15" d="M87.31,104.47h1.41V106H89a3.41,3.41,0,0,1,3.29-1.74c2.33,0,4.23,1.74,4.23,4.62v.24c0,2.85-1.88,4.61-4.23,4.61A3.4,3.4,0,0,1,89,112h-.25v5.08H87.31ZM95,109v-.17a3.15,3.15,0,1,0-6.28,0V109A3.15,3.15,0,1,0,95,109Z"/><path class="cls-15" d="M98.66,109.07v-.22a4.33,4.33,0,0,1,4.45-4.64,4.13,4.13,0,0,1,4.31,4.45v.66h-7.29a3,3,0,0,0,3.11,3.08,2.74,2.74,0,0,0,2.73-1.8l1.24.61a4.1,4.1,0,0,1-4,2.47A4.33,4.33,0,0,1,98.66,109.07Zm7.29-.94a2.65,2.65,0,0,0-2.84-2.63,2.81,2.81,0,0,0-3,2.63Z"/><path class="cls-15" d="M109.94,104.47h1.41v1.1h.26a1.88,1.88,0,0,1,2-1.14h1.06v1.32h-1.15a2,2,0,0,0-2.16,2.22v5.45h-1.45Z"/><path class="cls-15" d="M115.93,110.88c0-1.81,1.45-2.71,3.37-2.71h3v-.66a1.93,1.93,0,0,0-2.21-2.05,2.34,2.34,0,0,0-2.51,1.92l-1.36-.44a3.69,3.69,0,0,1,3.88-2.73c2.27,0,3.63,1.25,3.63,3.39v4.05c0,.36.18.55.51.55h.83v1.22h-1.27a1.2,1.2,0,0,1-1.33-1.24v-.09h-.22a3,3,0,0,1-3,1.59C117.38,113.68,115.93,112.67,115.93,110.88Zm6.39-1.34v-.2h-3c-1.15,0-2,.5-2,1.5s.82,1.6,2.07,1.6A2.68,2.68,0,0,0,122.32,109.54Z"/><path class="cls-15" d="M128.73,111.94h-.26v1.48h-1.41V100.61h1.45v5.27h.26a3.4,3.4,0,0,1,3.26-1.67c2.34,0,4.23,1.76,4.23,4.62v.24c0,2.87-1.91,4.61-4.23,4.61A3.41,3.41,0,0,1,128.73,111.94Zm6-2.91v-.17a3.15,3.15,0,1,0-6.28,0V109a3.15,3.15,0,1,0,6.28,0Z"/><path class="cls-15" d="M138.86,100.61h1.44v12.81h-1.44Z"/><path class="cls-15" d="M142.9,109.07v-.22a4.33,4.33,0,0,1,4.45-4.64,4.12,4.12,0,0,1,4.3,4.45v.66h-7.28a3,3,0,0,0,3.11,3.08,2.74,2.74,0,0,0,2.73-1.8l1.24.61a4.11,4.11,0,0,1-4,2.47A4.33,4.33,0,0,1,142.9,109.07Zm7.29-.94a2.65,2.65,0,0,0-2.84-2.63,2.81,2.81,0,0,0-3,2.63Z"/><path class="cls-15" d="M48.12,133.91h-.26v1.49H46.45V122.58H47.9v5.27h.25a3.4,3.4,0,0,1,3.26-1.66c2.35,0,4.23,1.75,4.23,4.61V131c0,2.87-1.9,4.61-4.23,4.61A3.38,3.38,0,0,1,48.12,133.91Zm6-2.91v-.16a3.15,3.15,0,1,0-6.28,0V131a3.15,3.15,0,1,0,6.28,0Z"/><path class="cls-15" d="M58.24,122.58h1.45V135.4H58.24Z"/><path class="cls-15" d="M62.29,131v-.24a4.58,4.58,0,1,1,9.15,0V131a4.58,4.58,0,1,1-9.15,0ZM70,131v-.16a3.14,3.14,0,1,0-6.26,0V131A3.14,3.14,0,1,0,70,131Z"/><path class="cls-15" d="M73.61,131v-.2a4.35,4.35,0,0,1,4.55-4.63,4,4,0,0,1,4.29,3.42L81,129.9a2.67,2.67,0,0,0-2.86-2.41,3.08,3.08,0,0,0-3.13,3.35V131a3.08,3.08,0,0,0,3.13,3.35,2.7,2.7,0,0,0,2.91-2.41l1.43.31a4.18,4.18,0,0,1-4.36,3.4A4.35,4.35,0,0,1,73.61,131Z"/><path class="cls-15" d="M85,122.58h1.45v7.54h.26l4.1-3.68h2l-5,4.36L93,135.4H91l-4.26-3.9h-.26v3.9H85Z"/><path class="cls-15" d="M93.93,131v-.2a4.35,4.35,0,0,1,4.56-4.63,4,4,0,0,1,4.28,3.42l-1.41.29a2.66,2.66,0,0,0-2.85-2.41,3.08,3.08,0,0,0-3.13,3.35V131a3.08,3.08,0,0,0,3.13,3.35,2.7,2.7,0,0,0,2.91-2.41l1.43.31a4.19,4.19,0,0,1-4.36,3.4A4.35,4.35,0,0,1,93.93,131Z"/><path class="cls-15" d="M105.32,122.58h1.45v5.29H107a3.05,3.05,0,0,1,3-1.59,3.41,3.41,0,0,1,3.55,3.7v5.42h-1.44v-5.31a2.25,2.25,0,0,0-2.47-2.55c-1.73,0-2.93,1.14-2.93,3.35v4.51h-1.45Z"/><path class="cls-15" d="M115.94,132.85c0-1.81,1.45-2.71,3.37-2.71h3v-.66c0-1.26-.73-2-2.22-2a2.34,2.34,0,0,0-2.5,1.92l-1.36-.44a3.69,3.69,0,0,1,3.88-2.72c2.27,0,3.63,1.24,3.63,3.38v4.05c0,.37.18.55.51.55h.82v1.23h-1.26a1.22,1.22,0,0,1-1.34-1.25v-.09h-.22a3,3,0,0,1-3,1.59C117.39,135.65,115.94,134.65,115.94,132.85Zm6.39-1.34v-.2h-3c-1.15,0-2,.5-2,1.5s.82,1.6,2.07,1.6A2.68,2.68,0,0,0,122.33,131.51Z"/><path class="cls-15" d="M126.69,124a1.11,1.11,0,1,1,1.1,1.1A1.06,1.06,0,0,1,126.69,124Zm.38,2.49h1.45v9h-1.45Z"/><path class="cls-15" d="M131.56,126.44H133V128h.25a3,3,0,0,1,3.08-1.68,3.41,3.41,0,0,1,3.55,3.7v5.42h-1.44v-5.31a2.25,2.25,0,0,0-2.48-2.55c-1.72,0-2.92,1.14-2.92,3.35v4.51h-1.45Z"/><text class="cls-16" transform="translate(494.58 127.16)">Chain<tspan class="cls-17" x="49.22" y="0" xml:space="preserve"> A</tspan></text><text class="cls-16" transform="translate(494.06 417.24)">Chain B</text><line class="cls-18" x1="225.15" y1="184.03" x2="173.38" y2="221.83"/><line class="cls-18" x1="188.94" y1="232.92" x2="240.71" y2="195.11"/><path class="cls-19" d="M224.29,184.66l-2.2-3a.34.34,0,0,1,.24-.53l3.69-.4,3.7-.39a.33.33,0,0,1,.34.46l-1.51,3.4-1.5,3.4a.33.33,0,0,1-.57.06Z"/><path class="cls-19" d="M189.81,232.28l2.19,3a.33.33,0,0,1-.23.52l-3.7.4-3.7.4a.33.33,0,0,1-.33-.47l1.5-3.4,1.5-3.4a.34.34,0,0,1,.58-.06Z"/><line class="cls-18" x1="217.78" y1="307.43" x2="269.55" y2="345.23"/><line class="cls-18" x1="253.99" y1="356.32" x2="202.21" y2="318.52"/><path class="cls-19" d="M218.64,308.06l2.19-3a.33.33,0,0,0-.23-.53l-3.69-.4-3.7-.39a.33.33,0,0,0-.34.46l1.51,3.4,1.5,3.4a.33.33,0,0,0,.57.06Z"/><path class="cls-19" d="M253.12,355.69l-2.19,3a.33.33,0,0,0,.23.52l3.7.4,3.69.4a.33.33,0,0,0,.34-.47l-1.5-3.4-1.51-3.4a.33.33,0,0,0-.57-.06Z"/></g></g></svg>