<svg xmlns="http://www.w3.org/2000/svg" viewBox="0 0 93.21 93.22"><defs><style>.cls-1{opacity:0.43;}.cls-2{fill:#fff;}</style></defs><g id="Layer_2" data-name="Layer 2"><g id="Layer_1-2" data-name="Layer 1"><g class="cls-1"><path class="cls-2" d="M46.61,8.4c12.44,0,13.92,0,18.83.27a26.23,26.23,0,0,1,8.66,1.6,14.52,14.52,0,0,1,5.35,3.49,14.35,14.35,0,0,1,3.49,5.36,25.75,25.75,0,0,1,1.61,8.65c.22,4.92.27,6.39.27,18.84s0,13.92-.27,18.83a25.83,25.83,0,0,1-1.61,8.66,15.51,15.51,0,0,1-8.84,8.84,25.89,25.89,0,0,1-8.66,1.61c-4.91.22-6.39.27-18.83.27s-13.92,0-18.84-.27a25.75,25.75,0,0,1-8.65-1.61,14.23,14.23,0,0,1-5.36-3.49,14.52,14.52,0,0,1-3.49-5.35,26.17,26.17,0,0,1-1.6-8.66c-.22-4.91-.27-6.39-.27-18.83s0-13.92.27-18.84a26.09,26.09,0,0,1,1.6-8.65,14.48,14.48,0,0,1,3.49-5.36,14.48,14.48,0,0,1,5.36-3.49,26.09,26.09,0,0,1,8.65-1.6c4.92-.22,6.39-.27,18.84-.27m0-8.4C34,0,32.36.05,27.39.28A34.3,34.3,0,0,0,16.08,2.45,22.79,22.79,0,0,0,7.82,7.82a22.79,22.79,0,0,0-5.37,8.26A34,34,0,0,0,.28,27.39C.05,32.36,0,34,0,46.61S.05,60.85.28,65.82A34.11,34.11,0,0,0,2.45,77.14a22.84,22.84,0,0,0,5.37,8.25,22.82,22.82,0,0,0,8.26,5.38,34.3,34.3,0,0,0,11.31,2.17c5,.22,6.56.28,19.22.28s14.24-.06,19.21-.28a34.43,34.43,0,0,0,11.32-2.17A23.9,23.9,0,0,0,90.77,77.14a34.14,34.14,0,0,0,2.16-11.32c.23-5,.28-6.55.28-19.21s0-14.25-.28-19.22a34.08,34.08,0,0,0-2.16-11.31,22.82,22.82,0,0,0-5.38-8.26,22.84,22.84,0,0,0-8.25-5.37A34.43,34.43,0,0,0,65.82.28C60.85.05,59.27,0,46.61,0"/><path class="cls-2" d="M46.61,22.67A23.94,23.94,0,1,0,70.54,46.61,23.94,23.94,0,0,0,46.61,22.67m0,39.47A15.54,15.54,0,1,1,62.14,46.61,15.53,15.53,0,0,1,46.61,62.14"/><path class="cls-2" d="M77.08,21.73a5.6,5.6,0,1,1-5.59-5.59,5.59,5.59,0,0,1,5.59,5.59"/></g></g></g></svg>