<svg xmlns="http://www.w3.org/2000/svg" xmlns:xlink="http://www.w3.org/1999/xlink" viewBox="0 0 55.34 110"><defs><style>.cls-1{fill:url(#linear-gradient);}.cls-2{fill:url(#linear-gradient-2);}.cls-3{fill:url(#linear-gradient-3);}.cls-4{fill:url(#linear-gradient-4);}.cls-5{fill:url(#linear-gradient-5);}</style><linearGradient id="linear-gradient" x1="-12.83" y1="-8.52" x2="92.57" y2="155.03" gradientUnits="userSpaceOnUse"><stop offset="0" stop-color="#01b2ff"/><stop offset="1" stop-color="#e35be6"/></linearGradient><linearGradient id="linear-gradient-2" x1="-26.69" y1="0.41" x2="78.71" y2="163.96" xlink:href="#linear-gradient"/><linearGradient id="linear-gradient-3" x1="-21.05" y1="-3.22" x2="84.36" y2="160.33" xlink:href="#linear-gradient"/><linearGradient id="linear-gradient-4" x1="-2.9" y1="-23.35" x2="103.12" y2="123.96" xlink:href="#linear-gradient"/><linearGradient id="linear-gradient-5" x1="-13.03" y1="-16.06" x2="92.99" y2="131.24" xlink:href="#linear-gradient"/></defs><g id="Layer_2" data-name="Layer 2"><g id="Layer_1-2" data-name="Layer 1"><path class="cls-1" d="M3.07,54.84A2.24,2.24,0,0,1,4,56.11c.45,1.41.93,2.8,1.4,4.21a6.24,6.24,0,0,0,4.94,4.31,20.63,20.63,0,0,0,8.81-.36A6.48,6.48,0,0,0,23.91,60c.56-1.56,1-2.81,1.49-4.39A1.64,1.64,0,0,1,27,54.24a8.63,8.63,0,0,1,.88,0c1.4,0,1.83.41,2.21,1.76a26.9,26.9,0,0,0,1.4,4.38,6.87,6.87,0,0,0,4.68,3.89,16.17,16.17,0,0,0,5.35.82,14.1,14.1,0,0,0,4.4-.68,5.78,5.78,0,0,0,3.78-3.48c.62-1.65,1.16-3.34,1.77-5a1.88,1.88,0,0,1,.67-.91,1.25,1.25,0,0,0,.64-1.21c0-.31,0-.62,0-.93.07-.64-.23-.92-.83-1-2.42-.43-4.81-1-7.24-1.27a27.47,27.47,0,0,0-14.28,1.67,7,7,0,0,1-5.54,0,24.23,24.23,0,0,0-10.07-1.88A43.65,43.65,0,0,0,4.43,51.62c-1.93.42-2.12.63-1.78,2.57A1.06,1.06,0,0,0,3.07,54.84Zm29.68-2.47a13.85,13.85,0,0,1,4.89-1.25,25.37,25.37,0,0,1,10.46,1,2.57,2.57,0,0,1,2.12,2.93,13.83,13.83,0,0,1-1.37,6.32,4.34,4.34,0,0,1-2.35,2.07,13.86,13.86,0,0,1-5,.84,16.16,16.16,0,0,1-5.95-1.17,5.19,5.19,0,0,1-2.5-2,11.55,11.55,0,0,1-2-5.89A2.82,2.82,0,0,1,32.75,52.37ZM5.21,54.89a2.53,2.53,0,0,1,2-2.74,26,26,0,0,1,7.9-1.2,21,21,0,0,1,6.7,1,9.17,9.17,0,0,1,.9.41,2.76,2.76,0,0,1,1.66,2.84,10.93,10.93,0,0,1-2.72,6.68,6.39,6.39,0,0,1-3.22,1.68,15.72,15.72,0,0,1-8.81.09,4.83,4.83,0,0,1-3.43-3.14A15.21,15.21,0,0,1,5.21,54.89Z"/><path class="cls-2" d="M47.93,78.73a22.38,22.38,0,0,1-6,1.85,16.39,16.39,0,0,1-14.21-4.71,16.4,16.4,0,0,1-14.22,4.71,22.31,22.31,0,0,1-6-1.85l-.27-.12c-.66,3.41-1.07,8.65,1,13.51A4.3,4.3,0,0,0,10,89.89c-.63,2-1.34,7.83,7.83,13.36a7.26,7.26,0,0,0,0-4.38A26.81,26.81,0,0,0,27.67,110a26.9,26.9,0,0,0,9.85-11.13,7.17,7.17,0,0,0,0,4.38c9.17-5.53,8.45-11.32,7.83-13.36a4.3,4.3,0,0,0,1.87,2.23c2.05-4.86,1.64-10.1,1-13.51Z"/><path class="cls-3" d="M51.57,72.18C43.88,71,35.66,65.9,35.66,65.9c-5.83-3.15-8,2.16-8,2.16s-2.16-5.31-8-2.16c0,0-8.21,5.14-15.9,6.28A17.92,17.92,0,0,1,0,72.37,29.84,29.84,0,0,0,7.14,77.1l.27.13a22.31,22.31,0,0,0,6,1.85,16.43,16.43,0,0,0,14.22-4.71,16.42,16.42,0,0,0,14.21,4.71,22.38,22.38,0,0,0,6-1.85l.27-.13a30.1,30.1,0,0,0,7.14-4.73A17.86,17.86,0,0,1,51.57,72.18Z"/><path class="cls-4" d="M16.08,42.28c5-.07,8.84-4,14.53-6.68a36.63,36.63,0,0,1,14.23-3.32,27.3,27.3,0,0,1-1.73-9.58c0-6.51,2.24-13.77,5.9-18.17C43.93,1.74,36.88,0,29.09,0,18.93,0,10,3,5.1,7.36v0c4.12,5.26,6.7,12.87,6.7,21.34a39.27,39.27,0,0,1-1.42,10.59C11.42,40.51,12.87,42.32,16.08,42.28Z"/><path class="cls-5" d="M47.79,33.61c-1,0-2,0-2.95.07A36.27,36.27,0,0,0,30.61,37c-5.69,2.71-9.55,6.61-14.53,6.68-3.21,0-4.66-1.77-5.7-3a3,3,0,0,0-1.11-.93c-4.36-1.44-7.63-1-8.95.93C-.76,42.32.73,47,7.09,48.54a20,20,0,0,0,5.12.5c10.68-.26,20.23-9.41,26.74-9.33,4.11,0,7.25,2,10.06,2.68a5.2,5.2,0,0,0,4.68-.9C57.85,38.27,53.48,33.61,47.79,33.61Z"/></g></g></svg>