<svg xmlns="http://www.w3.org/2000/svg" xmlns:xlink="http://www.w3.org/1999/xlink" viewBox="0 0 80.71 83.82"><defs><style>.cls-1{fill:url(#linear-gradient);}.cls-2{fill:url(#linear-gradient-2);}.cls-3{fill:url(#linear-gradient-3);}.cls-4{fill:url(#linear-gradient-4);}.cls-5{fill:url(#linear-gradient-5);}.cls-6{fill:url(#linear-gradient-6);}.cls-7{fill:url(#linear-gradient-7);}.cls-8{fill:url(#linear-gradient-8);}.cls-9{fill:url(#linear-gradient-9);}.cls-10{fill:url(#linear-gradient-10);}.cls-11{fill:url(#linear-gradient-11);}</style><linearGradient id="linear-gradient" x1="-50.95" y1="-2.32" x2="39.24" y2="123" gradientUnits="userSpaceOnUse"><stop offset="0" stop-color="#01b2ff"/><stop offset="1" stop-color="#e35be6"/></linearGradient><linearGradient id="linear-gradient-2" x1="-41.23" y1="-9.32" x2="48.97" y2="116" xlink:href="#linear-gradient"/><linearGradient id="linear-gradient-3" x1="-31" y1="-16.68" x2="59.19" y2="108.64" xlink:href="#linear-gradient"/><linearGradient id="linear-gradient-4" x1="-22.37" y1="-22.89" x2="67.83" y2="102.43" xlink:href="#linear-gradient"/><linearGradient id="linear-gradient-5" x1="-14.63" y1="-28.46" x2="75.56" y2="96.86" xlink:href="#linear-gradient"/><linearGradient id="linear-gradient-6" x1="-5.79" y1="-34.82" x2="84.4" y2="90.5" xlink:href="#linear-gradient"/><linearGradient id="linear-gradient-7" x1="15.75" y1="-5.18" x2="79.79" y2="94.18" xlink:href="#linear-gradient"/><linearGradient id="linear-gradient-8" x1="7.33" y1="0.25" x2="71.37" y2="99.61" xlink:href="#linear-gradient"/><linearGradient id="linear-gradient-9" x1="10.76" y1="-1.96" x2="74.79" y2="97.4" xlink:href="#linear-gradient"/><linearGradient id="linear-gradient-10" x1="21.79" y1="-14.18" x2="86.19" y2="75.3" xlink:href="#linear-gradient"/><linearGradient id="linear-gradient-11" x1="15.63" y1="-9.76" x2="80.04" y2="79.73" xlink:href="#linear-gradient"/></defs><g id="Layer_2" data-name="Layer 2"><g id="Layer_1-2" data-name="Layer 1"><path class="cls-1" d="M.05,69.05H10.19a2.4,2.4,0,0,1,2.21,1.42,3.14,3.14,0,0,1,.21,1c0,1.08,0,2.17,0,3.25A2.92,2.92,0,0,1,11.35,77a3,3,0,0,1-1.4.55c-1.88.19-3.75.4-5.63.63l-.05.06c0,1.56,0,3.11,0,4.67l0,.07c-1.39.26-2.78.53-4.16.82l0-.06V69.11ZM4.31,72.5v2.24l3.77-.26a.84.84,0,0,0,.84-.63v-1q0-.45-.75-.54Z"/><path class="cls-2" d="M14,69.05H24.1a2.49,2.49,0,0,1,2.06,1,2.69,2.69,0,0,1,.38,1.6c0,.69,0,1.39,0,2.08a2.62,2.62,0,0,1-1.84,2.58v0c.79,1.27,1.58,2.51,2.37,3.75l0,0c-1.48.1-3,.21-4.44.35-.11-.12-.88-1.33-2.33-3.76l0,0-2,.14-.05.05,0,4-.05,0c-1.4.16-2.8.33-4.2.52l0,0q0-6.15.07-12.31ZM18.21,72c0,.64,0,1.28,0,1.91L22,73.75a.82.82,0,0,0,.84-.53v-.85c0-.25-.25-.41-.75-.48Z"/><path class="cls-3" d="M31.6,69.05h6.09a3.57,3.57,0,0,1,2.58,1.15,2.31,2.31,0,0,1,.64,1.44V77a2.66,2.66,0,0,1-1.53,2.18,4.51,4.51,0,0,1-2.12.51c-1.76,0-3.53.07-5.29.15A3.34,3.34,0,0,1,28.46,78a3.41,3.41,0,0,1-.15-1l0-4.9a3,3,0,0,1,2.45-2.93A3.13,3.13,0,0,1,31.6,69.05Zm1.14,3.35c0,1.26,0,2.52,0,3.78,0,.56.17.9.54,1l2.61,0c.37,0,.59-.33.64-1,0-1.26,0-2.53,0-3.8,0-.68-.24-1-.71-1H33.46C33,71.37,32.74,71.71,32.74,72.4Z"/><path class="cls-4" d="M42.22,69.05H53.05l.05,0c0,.76,0,1.53,0,2.29l0,0q-3.29,0-6.59-.06c0,.46,0,.93,0,1.4q3,0,6,.09l.05.05c0,.87,0,1.73,0,2.59l0,.05c-2-.08-4-.13-6-.17,0,1.46,0,2.91,0,4.37l0,0c-1.41,0-2.82-.07-4.22-.08l0,0q0-5.28,0-10.56Z"/><path class="cls-5" d="M54.2,69.05H64.84l0,0c0,.84,0,1.67,0,2.51l-.05,0-6.38-.14c0,.49,0,1,0,1.49,2,.06,3.93.14,5.89.22l0,0c0,1,0,1.9,0,2.85l0,.05c-2-.14-3.93-.27-5.9-.37l0,1.92q3.2.22,6.39.52l0,.06,0,2.86,0,0q-5.33-.66-10.66-1l0-.05-.06-11Z"/><path class="cls-6" d="M66,69.05h5.43c.63.86,1.25,1.74,1.88,2.65.62-.87,1.24-1.75,1.85-2.65h5.53v0Q78.42,72.76,76.14,76c1.52,2.45,3,5,4.55,7.8l0,0q-2.68-.55-5.38-1c-.62-1-1.24-2-1.87-3-.62.8-1.25,1.6-1.87,2.37q-2.73-.44-5.46-.79l0-.06c1.52-1.84,3-3.77,4.57-5.8-1.52-2.25-3-4.37-4.58-6.4Z"/><path class="cls-7" d="M25.41,33.31a1.38,1.38,0,0,1,.58.78c.27.85.57,1.7.85,2.55a3.78,3.78,0,0,0,3,2.62A12.38,12.38,0,0,0,35.19,39a3.91,3.91,0,0,0,2.88-2.59c.34-.94.61-1.7.91-2.66A1,1,0,0,1,40,33a3.11,3.11,0,0,1,.53,0c.85,0,1.11.24,1.34,1.06a16.16,16.16,0,0,0,.85,2.66A4.18,4.18,0,0,0,45.54,39a10,10,0,0,0,3.26.5,8.57,8.57,0,0,0,2.67-.42A3.53,3.53,0,0,0,53.77,37c.37-1,.7-2,1.07-3a1.12,1.12,0,0,1,.41-.54.79.79,0,0,0,.39-.74,5.42,5.42,0,0,1,0-.57c0-.38-.14-.56-.51-.62-1.46-.26-2.92-.61-4.39-.77a16.74,16.74,0,0,0-8.68,1,4.22,4.22,0,0,1-3.36,0,14.6,14.6,0,0,0-6.12-1.14,26.18,26.18,0,0,0-6.33.77c-1.17.26-1.29.38-1.08,1.56A.59.59,0,0,0,25.41,33.31Zm18-1.49a8.15,8.15,0,0,1,3-.76,15.51,15.51,0,0,1,6.35.6,1.57,1.57,0,0,1,1.29,1.78,8.37,8.37,0,0,1-.84,3.84,2.62,2.62,0,0,1-1.42,1.26,8.39,8.39,0,0,1-3,.51,9.93,9.93,0,0,1-3.62-.71,3.17,3.17,0,0,1-1.52-1.23,7.06,7.06,0,0,1-1.23-3.58A1.7,1.7,0,0,1,43.44,31.82ZM26.71,33.35a1.54,1.54,0,0,1,1.21-1.67A15.94,15.94,0,0,1,32.73,31a12.86,12.86,0,0,1,4.07.63c.18.07.36.16.54.25a1.67,1.67,0,0,1,1,1.73,6.64,6.64,0,0,1-1.65,4.06,3.94,3.94,0,0,1-2,1,9.54,9.54,0,0,1-5.35,0,2.93,2.93,0,0,1-2.08-1.9A9.24,9.24,0,0,1,26.71,33.35Z"/><path class="cls-8" d="M52.66,47.83A13.45,13.45,0,0,1,49,49a10,10,0,0,1-8.63-2.86A10,10,0,0,1,31.72,49a13.56,13.56,0,0,1-3.67-1.12l-.17-.08a14.46,14.46,0,0,0,.6,8.21,2.59,2.59,0,0,0,1.13-1.35c-.37,1.24-.81,4.75,4.76,8.12a4.33,4.33,0,0,0,0-2.66,16.32,16.32,0,0,0,6,6.76,16.34,16.34,0,0,0,6-6.76,4.33,4.33,0,0,0,0,2.66c5.57-3.37,5.14-6.88,4.76-8.12A2.59,2.59,0,0,0,52.23,56a14.46,14.46,0,0,0,.6-8.21Z"/><path class="cls-9" d="M54.88,43.85C50.2,43.16,45.21,40,45.21,40c-3.54-1.92-4.85,1.31-4.85,1.31S39.05,38.12,35.5,40c0,0-5,3.12-9.67,3.81a11.79,11.79,0,0,1-2.28.12,18.29,18.29,0,0,0,4.33,2.87l.17.08A13.56,13.56,0,0,0,31.72,48a10,10,0,0,0,8.64-2.86A10,10,0,0,0,49,48a13.45,13.45,0,0,0,3.67-1.12l.17-.08A18.29,18.29,0,0,0,57.16,44,11.83,11.83,0,0,1,54.88,43.85Z"/><path class="cls-10" d="M33.31,25.69c3,0,5.38-2.41,8.83-4.06a22.13,22.13,0,0,1,8.65-2,16.57,16.57,0,0,1-1-5.82,18.36,18.36,0,0,1,3.58-11A25.64,25.64,0,0,0,41.22,0C35.05,0,29.64,1.79,26.65,4.47v0a21.22,21.22,0,0,1,4.07,13,23.8,23.8,0,0,1-.87,6.44A4.2,4.2,0,0,0,33.31,25.69Z"/><path class="cls-11" d="M52.58,20.42c-.6,0-1.19,0-1.79,0a22.13,22.13,0,0,0-8.65,2c-3.45,1.64-5.8,4-8.83,4.05a4.17,4.17,0,0,1-3.46-1.78,1.75,1.75,0,0,0-.67-.57c-2.65-.87-4.64-.62-5.44.56-.65,1,.25,3.81,4.11,4.75a12.09,12.09,0,0,0,3.12.3c6.48-.15,12.29-5.72,16.24-5.67,2.5,0,4.41,1.24,6.11,1.63a3.15,3.15,0,0,0,2.84-.54C58.69,23.25,56,20.42,52.58,20.42Z"/></g></g></svg>