<svg xmlns="http://www.w3.org/2000/svg" xmlns:xlink="http://www.w3.org/1999/xlink" viewBox="0 0 265.49 229.57"><defs><style>.cls-1{isolation:isolate;}.cls-2{fill:url(#linear-gradient);}.cls-3,.cls-4,.cls-5,.cls-6{fill:#fff;}.cls-4{opacity:0.5;}.cls-5{opacity:0.6;}.cls-5,.cls-6{mix-blend-mode:overlay;}.cls-6{opacity:0.3;}</style><linearGradient id="linear-gradient" x1="184.19" y1="-8.88" x2="94.47" y2="117.49" gradientUnits="userSpaceOnUse"><stop offset="0" stop-color="#01b2ff"/><stop offset="1" stop-color="#e35be6"/></linearGradient></defs><g class="cls-1"><g id="Layer_2" data-name="Layer 2"><g id="Layer_1-2" data-name="Layer 1"><path class="cls-2" d="M223.83,0H44.31A17.86,17.86,0,0,0,26.45,17.86v87.7a17.86,17.86,0,0,0,17.86,17.86h132.1l27.43,27.43V123.42h20a17.86,17.86,0,0,0,17.86-17.86V17.86A17.86,17.86,0,0,0,223.83,0Z"/><path class="cls-3" d="M215,34.58H57a3.44,3.44,0,1,1,0-6.88H215a3.44,3.44,0,0,1,0,6.88Z"/><path class="cls-3" d="M173.78,64.18H57a3.44,3.44,0,1,1,0-6.88H173.78a3.44,3.44,0,0,1,0,6.88Z"/><path class="cls-3" d="M173.78,93.78H57a3.45,3.45,0,0,1,0-6.89H173.78a3.45,3.45,0,0,1,0,6.89Z"/><path class="cls-3" d="M215,34.58H57a3.44,3.44,0,1,1,0-6.88H215a3.44,3.44,0,0,1,0,6.88Z"/><path class="cls-3" d="M173.78,64.18H57a3.44,3.44,0,1,1,0-6.88H173.78a3.44,3.44,0,0,1,0,6.88Z"/><path class="cls-3" d="M173.78,93.78H57a3.45,3.45,0,0,1,0-6.89H173.78a3.45,3.45,0,0,1,0,6.89Z"/><path class="cls-4" d="M243.45,45.22a20.35,20.35,0,0,1,20.32,20.32V173.7A20.34,20.34,0,0,1,243.45,194H218.8a1.72,1.72,0,0,0-1.72,1.72v29.68l-30.9-30.9A1.72,1.72,0,0,0,185,194H22A20.33,20.33,0,0,1,1.72,173.7V65.54A20.34,20.34,0,0,1,22,45.22H243.45m0-1.72H22a22,22,0,0,0-22,22V173.7a22,22,0,0,0,22,22H185l33.84,33.84V195.73h24.65a22,22,0,0,0,22-22V65.54a22,22,0,0,0-22-22Z"/><path class="cls-5" d="M54.27,159.08a11,11,0,1,0-11,11A11,11,0,0,0,54.27,159.08Z"/><path class="cls-5" d="M101.53,159.08a11,11,0,1,0-11,11A11,11,0,0,0,101.53,159.08Z"/><path class="cls-5" d="M150.29,159.08a11,11,0,1,0-11,11A11,11,0,0,0,150.29,159.08Z"/><path class="cls-6" d="M243.45,45.22a20.35,20.35,0,0,1,20.32,20.32V173.7A20.34,20.34,0,0,1,243.45,194H218.8a1.72,1.72,0,0,0-1.72,1.72v29.68l-30.9-30.9A1.72,1.72,0,0,0,185,194H22A20.33,20.33,0,0,1,1.72,173.7V65.54A20.34,20.34,0,0,1,22,45.22H243.45"/></g></g></g></svg>