<svg xmlns="http://www.w3.org/2000/svg" xmlns:xlink="http://www.w3.org/1999/xlink" viewBox="0 0 225.51 261.87"><defs><style>.cls-1{isolation:isolate;}.cls-2{fill:url(#linear-gradient);}.cls-3{fill:#2e025a;opacity:0.2;mix-blend-mode:multiply;}.cls-10,.cls-4,.cls-5,.cls-7,.cls-9{fill:#fff;}.cls-5{opacity:0.6;}.cls-10,.cls-5{mix-blend-mode:overlay;}.cls-6{fill:url(#Degradado_sin_nombre_26);}.cls-7{mix-blend-mode:soft-light;}.cls-8{fill:url(#linear-gradient-2);}.cls-9{opacity:0.5;}.cls-10{opacity:0.3;}</style><linearGradient id="linear-gradient" x1="154.74" y1="1.43" x2="48.57" y2="151.01" gradientUnits="userSpaceOnUse"><stop offset="0" stop-color="#01b2ff"/><stop offset="1" stop-color="#e35be6"/></linearGradient><linearGradient id="Degradado_sin_nombre_26" x1="182.52" y1="117.74" x2="163.66" y2="224.58" gradientUnits="userSpaceOnUse"><stop offset="0" stop-color="#ff16bf"/><stop offset="0.17" stop-color="#da2ac9"/><stop offset="0.45" stop-color="#a547d7"/><stop offset="0.69" stop-color="#7e5be1"/><stop offset="0.88" stop-color="#6668e8"/><stop offset="1" stop-color="#5d6dea"/></linearGradient><linearGradient id="linear-gradient-2" x1="-307.19" y1="-1095.35" x2="-312.18" y2="-1017.53" gradientTransform="translate(501.07 1284.3)" xlink:href="#linear-gradient"/></defs><g class="cls-1"><g id="Layer_2" data-name="Layer 2"><g id="Layer_1-2" data-name="Layer 1"><path class="cls-2" d="M199.75,13.46V144a13.45,13.45,0,0,1-13.46,13.46H13.45A13.45,13.45,0,0,1,0,144V13.46A13.45,13.45,0,0,1,13.45,0H186.29A13.45,13.45,0,0,1,199.75,13.46Z"/><path class="cls-3" d="M199.75,64.14V144a13.45,13.45,0,0,1-13.46,13.46H13.45A13.45,13.45,0,0,1,0,144V101.59s39,38.62,87.25,12.51S165.37,61.82,199.75,64.14Z"/><path class="cls-4" d="M170.24,23.14H22.57a2.87,2.87,0,1,1,0-5.74H170.24a2.87,2.87,0,1,1,0,5.74Z"/><path class="cls-4" d="M105.42,62H22.57a2.87,2.87,0,1,1,0-5.74h82.85a2.87,2.87,0,0,1,0,5.74Z"/><path class="cls-4" d="M158.39,41.47H22.57a2.87,2.87,0,1,1,0-5.73H158.39a2.87,2.87,0,1,1,0,5.73Z"/><rect class="cls-5" x="19.85" y="86.14" width="57.04" height="50.68" rx="3.65"/><path class="cls-6" d="M193.71,214.08l-14,12.15-28.45-32.72-8.6-9.86a70.83,70.83,0,0,0,7.36-5.64,69.9,69.9,0,0,0,6.59-6.51l8.6,9.86Z"/><path class="cls-3" d="M165.24,181.36a90.59,90.59,0,0,1-6.68,6.44,86.31,86.31,0,0,1-7.27,5.71l-8.6-9.86a70.83,70.83,0,0,0,7.36-5.64,69.9,69.9,0,0,0,6.59-6.51Z"/><circle class="cls-5" cx="100.96" cy="121.61" r="48.19" transform="translate(-1.66 1.4) rotate(-0.79)"/><path class="cls-7" d="M138,124.78h0a2.87,2.87,0,0,1-2.84-2.89,34.19,34.19,0,0,0-33.9-34.46,2.87,2.87,0,0,1,0-5.73h0a39.91,39.91,0,0,1,39.58,40.23A2.87,2.87,0,0,1,138,124.78Z"/><path class="cls-8" d="M179.29,187.51H204a3.52,3.52,0,0,1,3.52,3.52v65.26a7.76,7.76,0,0,1-7.76,7.76H183.53a7.76,7.76,0,0,1-7.76-7.76V191a3.52,3.52,0,0,1,3.52-3.52Z" transform="translate(-101.15 181.25) rotate(-41.03)"/><path class="cls-9" d="M100.93,48.26a73.35,73.35,0,1,1-48.12,18,73.32,73.32,0,0,1,48.12-18m0-1.44a74.79,74.79,0,1,0,56.44,25.7,74.53,74.53,0,0,0-56.44-25.7Z"/><path class="cls-10" d="M100.93,48.26a73.35,73.35,0,1,1-48.12,18,73.32,73.32,0,0,1,48.12-18"/></g></g></g></svg>