<svg xmlns="http://www.w3.org/2000/svg" viewBox="0 0 59.26 96.4"><defs><style>.cls-1{fill:#fff;opacity:0.43;}</style></defs><g id="Layer_2" data-name="Layer 2"><g id="Layer_1-2" data-name="Layer 1"><path class="cls-1" d="M10.55,73.34c0,4.4.47,7.76,1.39,10.08a17.25,17.25,0,0,0,5,6.56,25,25,0,0,0,8.66,4.75A37.2,37.2,0,0,0,37.25,96.4a48.15,48.15,0,0,0,10.83-1.16,58.18,58.18,0,0,0,11.18-4.08V76A26.34,26.34,0,0,1,44.7,80.76a13.93,13.93,0,0,1-7.32-1.92,7.28,7.28,0,0,1-3.3-3.8c-.59-1.59-.89-5.17-.89-10.76V39.55H56.08V24.42H33.19V0H19.54a37.56,37.56,0,0,1-3.37,12.27,26.37,26.37,0,0,1-6.48,8.27A28.29,28.29,0,0,1,0,25.82V39.55H10.55Z"/></g></g></svg>