<svg xmlns="http://www.w3.org/2000/svg" viewBox="0 0 106.91 86.88"><defs><style>.cls-1{fill:#fff;opacity:0.43;}</style></defs><g id="Layer_2" data-name="Layer 2"><g id="Layer_1-2" data-name="Layer 1"><path class="cls-1" d="M0,77a62.12,62.12,0,0,0,33.62,9.85c40.72,0,63.73-34.39,62.34-65.24a44.47,44.47,0,0,0,11-11.36,43.39,43.39,0,0,1-12.6,3.45A21.9,21.9,0,0,0,104,1.6,44.1,44.1,0,0,1,90,6.93a21.95,21.95,0,0,0-37.38,20A62.26,62.26,0,0,1,7.44,4,22,22,0,0,0,14.23,33.3a22,22,0,0,1-9.94-2.75,22,22,0,0,0,17.6,21.79,21.92,21.92,0,0,1-9.9.37A21.93,21.93,0,0,0,32.47,68,44.13,44.13,0,0,1,0,77Z"/></g></g></svg>